<?xml version="1.0" encoding="UTF-8"?>
<svg version="1.1" xmlns="http://www.w3.org/2000/svg" width="256" height="256">
<path d="M0 0 C0.52722656 0.52980469 1.05445313 1.05960938 1.59765625 1.60546875 C3.65365497 3.65001344 5.86391644 4.06879214 8.625 4.875 C27.04094143 10.78574527 41.65744904 23.91637546 50.515625 41.00390625 C51.25039063 42.48697266 51.25039063 42.48697266 52 44 C52.39082764 44.72131104 52.78165527 45.44262207 53.18432617 46.18579102 C56.40130767 52.26350908 58.3989414 58.09228434 59.8125 64.8125 C60.12767578 66.30257568 60.12767578 66.30257568 60.44921875 67.82275391 C65.83554492 95.39707139 59.84829021 123.79960714 44.875 147.47265625 C44.25625 148.30667969 43.6375 149.14070312 43 150 C42.34 150 41.68 150 41 150 C40.814375 150.680625 40.62875 151.36125 40.4375 152.0625 C38.44380676 156.13656879 35.50225292 159.13376943 32 162 C31.34 162 30.68 162 30 162 C29.67 162.99 29.34 163.98 29 165 C26.6015625 167.04296875 26.6015625 167.04296875 23.625 169.1875 C22.64789063 169.90292969 21.67078125 170.61835938 20.6640625 171.35546875 C18 173 18 173 15 173 C14.67 173.99 14.34 174.98 14 176 C-2.12138756 184.31417471 -20.30892469 186.05952458 -37.91015625 182.55859375 C-40.90841249 182.01655754 -43.88991772 181.69277085 -46.92114258 181.39892578 C-59.11443297 180.15883306 -68.80429928 175.64319176 -79 169 C-79.63679688 168.60039062 -80.27359375 168.20078125 -80.9296875 167.7890625 C-85.79896176 164.56452088 -89.3748665 160.54704245 -93 156 C-93.639375 155.20851562 -94.27875 154.41703125 -94.9375 153.6015625 C-111.06492286 132.62331324 -118.83680757 105.17807827 -115.74511719 78.82763672 C-115.04916622 74.16605805 -114.06020952 69.59099903 -113 65 C-112.76023438 63.906875 -112.52046875 62.81375 -112.2734375 61.6875 C-108.98655067 47.52860289 -102.3275325 31.59065434 -92 21 C-91.34 21 -90.68 21 -90 21 C-89.773125 20.43925781 -89.54625 19.87851562 -89.3125 19.30078125 C-81.85643675 6.23047989 -64.92233647 -2.10113849 -51 -6 C-32.54665658 -10.61236524 -16.78907472 -9.1152292 0 0 Z M-17.62109375 6.171875 C-26.07013761 7.14073669 -34.07055719 12.3220007 -41 17 C-41.33 17.99 -41.66 18.98 -42 20 C-42.66 20 -43.32 20 -44 20 C-44 20.66 -44 21.32 -44 22 C-44.556875 22.226875 -45.11375 22.45375 -45.6875 22.6875 C-49.68438886 24.95600449 -52.53966649 27.61899946 -54 32 C-54.433125 32.4125 -54.86625 32.825 -55.3125 33.25 C-58.01759806 36.05528688 -61 40.02917179 -61 44 C-61.66 44 -62.32 44 -63 44 C-75.84343616 75.13995135 -83.37673366 112.56438034 -70 145 C-64.31694475 158.23917785 -64.31694475 158.23917785 -55 169 C-54.34 169 -53.68 169 -53 169 C-52.67 169.99 -52.34 170.98 -52 172 C-49.18490007 174.2773501 -49.18490007 174.2773501 -46 174 C-46 174.66 -46 175.32 -46 176 C-33.21358103 177.0437893 -22.33656534 172.48984221 -12.31640625 165.0234375 C-11.55199219 164.35570312 -10.78757812 163.68796875 -10 163 C-10 162.34 -10 161.68 -10 161 C-9.01 160.67 -8.02 160.34 -7 160 C11.35722313 143.005937 21.30701855 112.07500267 22.875 87.640625 C23.82255769 60.0430072 23.02304962 33.24397751 5.4375 10.5 C1.28699113 6.23437686 -1.57317017 5.30090359 -7.5 5.1875 C-10.88502506 5.47155805 -14.233583 5.94974315 -17.62109375 6.171875 Z " fill="#B58B57" transform="translate(156,40)"/>
<path d="M0 0 C9.6124036 0.83586118 17.62150351 4.3016829 24.24609375 11.41015625 C29.36610447 17.60710327 33.43587156 23.80608812 37 31 C37.39082764 31.72131104 37.78165527 32.44262207 38.18432617 33.18579102 C41.40130767 39.26350908 43.3989414 45.09228434 44.8125 51.8125 C45.02261719 52.80588379 45.23273438 53.79926758 45.44921875 54.82275391 C50.83554492 82.39707139 44.84829021 110.79960714 29.875 134.47265625 C29.25625 135.30667969 28.6375 136.14070312 28 137 C27.34 137 26.68 137 26 137 C25.814375 137.680625 25.62875 138.36125 25.4375 139.0625 C23.44380676 143.13656879 20.50225292 146.13376943 17 149 C16.34 149 15.68 149 15 149 C14.67 149.99 14.34 150.98 14 152 C11.6015625 154.04296875 11.6015625 154.04296875 8.625 156.1875 C7.64789063 156.90292969 6.67078125 157.61835938 5.6640625 158.35546875 C3 160 3 160 0 160 C-0.33 160.99 -0.66 161.98 -1 163 C-14.73136595 170.08158496 -28.88942256 171.4886055 -44 171 C-44 170.34 -44 169.68 -44 169 C-45.794375 168.814375 -45.794375 168.814375 -47.625 168.625 C-51.27596813 168.17674946 -54.54524899 167.29553163 -58 166 C-57.505 165.01 -57.505 165.01 -57 164 C-55.25 163.69140625 -55.25 163.69140625 -53 163.5625 C-45.76414923 162.89315495 -39.98980289 161.45759691 -35 156 C-33.57586647 155.0627019 -32.13639004 154.14855533 -30.6875 153.25 C-25.89412977 150.13312872 -22.55449763 146.43193029 -19 142 C-18.154375 141.030625 -17.30875 140.06125 -16.4375 139.0625 C-15.633125 138.051875 -14.82875 137.04125 -14 136 C-13.55140625 135.44957031 -13.1028125 134.89914063 -12.640625 134.33203125 C-3.7298056 122.33116964 0.69525417 106.40173446 4 92 C4.22429687 91.03578125 4.44859375 90.0715625 4.6796875 89.078125 C5.13808688 87.05614416 5.57288028 85.02881868 6 83 C6.66 83 7.32 83 8 83 C8.07526466 77.59638367 8.12911695 72.19308547 8.16479492 66.7890625 C8.17969888 64.95827914 8.20002914 63.12753027 8.22631836 61.296875 C8.44364285 45.75178183 6.80120548 31.86667685 2 17 C1.37949237 15.02589556 0.7754601 13.04654158 0.1875 11.0625 C-0.08707031 10.16660156 -0.36164063 9.27070312 -0.64453125 8.34765625 C-1 6 -1 6 1 3 C0.34 2.67 -0.32 2.34 -1 2 C-0.67 1.34 -0.34 0.68 0 0 Z " fill="#617135" transform="translate(171,53)"/>
<path d="M0 0 C0.66 0.33 1.32 0.66 2 1 C1.175 2.010625 0.35 3.02125 -0.5 4.0625 C-2.6105809 6.97627418 -3 7.74087606 -3 11.5 C-3 15.77759411 -4.21600047 17.39555618 -6.7109375 20.71484375 C-8 22 -8 22 -10 22 C-10.33 22.99 -10.66 23.98 -11 25 C-11.99 25 -12.98 25 -14 25 C-14.12117188 26.09699219 -14.24234375 27.19398437 -14.3671875 28.32421875 C-14.53609363 29.77868823 -14.70538481 31.23311304 -14.875 32.6875 C-14.99294922 33.7693457 -14.99294922 33.7693457 -15.11328125 34.87304688 C-15.48828344 38.03171919 -15.8778727 40.69601892 -17.0703125 43.6640625 C-18.2033693 46.51098673 -18.13032557 48.63706703 -18 51.6875 C-17.9034156 56.60726784 -18.45687087 60.88624083 -19.5546875 65.6640625 C-20.22041935 69.15623481 -20.13130177 72.45485233 -20 76 C-19.34 76.33 -18.68 76.66 -18 77 C-18.309375 78.2684375 -18.309375 78.2684375 -18.625 79.5625 C-19.06519957 83.59766272 -18.19765999 86.14087337 -17 90 C-16.80737804 91.4342527 -16.64064208 92.87222092 -16.5 94.3125 C-16.37521316 98.02857707 -16.37521316 98.02857707 -14 100 C-12.894183 103.01586454 -13.02312549 104.96083486 -14 108 C-13.34 108 -12.68 108 -12 108 C-11.7525 108.94875 -11.505 109.8975 -11.25 110.875 C-10.08802424 115.02249012 -8.41776615 118.91589648 -6.70703125 122.86328125 C-6 125 -6 125 -7 127 C-21.56020739 105.15968892 -27.65176193 77.53106967 -22.6875 51.625 C-22.16128284 49.07297179 -21.58648071 46.53962287 -21 44 C-20.76023438 42.906875 -20.52046875 41.81375 -20.2734375 40.6875 C-16.78560217 25.66297856 -9.78546252 11.93529899 0 0 Z " fill="#D0BA9D" transform="translate(64,61)"/>
<path d="M0 0 C2.55901853 0.9504926 4.87178014 1.91940466 7.1875 3.375 C9.71591814 4.83586381 12.10023257 5.87996454 14.8125 6.9375 C21.95264725 9.74255785 27.83994711 12.1949405 33 18 C28.33333333 16.66666667 23.66666667 15.33333333 19 14 C19.185625 14.78375 19.37125 15.5675 19.5625 16.375 C20 19 20 19 19 21 C19.37366848 22.85221713 19.37366848 22.85221713 20.125 25 C21.70590265 30.02082973 23.19343091 35.05992766 24.625 40.125 C24.8430127 40.87652344 25.06102539 41.62804687 25.28564453 42.40234375 C28.06287289 52.25967021 28.15490847 61.67621102 28.125 71.875 C28.13080078 73.84146484 28.13080078 73.84146484 28.13671875 75.84765625 C28.12958375 82.96125151 27.91377115 89.94169031 27 97 C26.67 97 26.34 97 26 97 C26.01047363 96.02877197 26.02094727 95.05754395 26.03173828 94.05688477 C26.06864195 90.36470402 26.09114907 86.67253852 26.10986328 82.98022461 C26.11976405 81.39881629 26.13328816 79.81742546 26.15087891 78.23608398 C26.41153473 54.15608568 24.17318795 28.1134986 6.65234375 9.73046875 C1.58500584 6.42438525 -4.12309404 6.71576842 -10 7 C-10 6.67 -10 6.34 -10 6 C-5.05 5.67 -0.1 5.34 5 5 C4.34 4.67 3.68 4.34 3 4 C3 3.34 3 2.68 3 2 C2.01 1.67 1.02 1.34 0 1 C0 0.67 0 0.34 0 0 Z " fill="#C6CCA4" transform="translate(152,39)"/>
<path d="M0 0 C2.47647765 2.4076866 4.81962587 4.76725919 6.9375 7.5 C10.05349849 11.27696787 13.27453337 14.42484446 18 16 C18 16.66 18 17.32 18 18 C19.15757813 17.79503906 20.31515625 17.59007812 21.5078125 17.37890625 C23.04687228 17.10675544 24.58593493 16.83462088 26.125 16.5625 C26.88554688 16.42779297 27.64609375 16.29308594 28.4296875 16.15429688 C32.61637161 15.41440873 36.80477147 14.69026923 41 14 C40 16 40 16 38.25 16.81640625 C32.79570824 18.62503425 27.73046625 19.54520109 22 20 C26.29 21.32 30.58 22.64 35 24 C35 24.33 35 24.66 35 25 C16.76852922 23.94711871 0.22101556 22.09739382 -15 11 C-15.66 10.01 -16.32 9.02 -17 8 C-3.1369863 11.8630137 -3.1369863 11.8630137 1 16 C3.06874034 16.6425235 3.06874034 16.6425235 5 17 C5.33 16.34 5.66 15.68 6 15 C6.66 15.33 7.32 15.66 8 16 C6.14317911 11.00086685 4.52148281 7.01432188 0 4 C0 2.68 0 1.36 0 0 Z " fill="#AD9369" transform="translate(92,198)"/>
<path d="M0 0 C1.84375 0.76171875 1.84375 0.76171875 2.84375 2.76171875 C2.18375 2.76171875 1.52375 2.76171875 0.84375 2.76171875 C0.73417969 3.32761719 0.62460938 3.89351562 0.51171875 4.4765625 C0.27388672 5.57677734 0.27388672 5.57677734 0.03125 6.69921875 C-0.11957031 7.43011719 -0.27039063 8.16101563 -0.42578125 8.9140625 C-0.66683594 9.52378906 -0.90789062 10.13351563 -1.15625 10.76171875 C-4.15625 11.76171875 -4.15625 11.76171875 -6.34375 10.82421875 C-6.941875 10.47359375 -7.54 10.12296875 -8.15625 9.76171875 C-8.15625 11.41171875 -8.15625 13.06171875 -8.15625 14.76171875 C-4.86928767 15.56125013 -3.44601808 15.85830811 -0.15625 14.76171875 C-0.15625 15.42171875 -0.15625 16.08171875 -0.15625 16.76171875 C-10.68831065 21.59293923 -21.75447709 18.25496782 -32.15625 14.76171875 C-31.82625 14.10171875 -31.49625 13.44171875 -31.15625 12.76171875 C-29.40625 12.453125 -29.40625 12.453125 -27.15625 12.32421875 C-20.00526677 11.66272429 -14.02224451 10.27651253 -9.15625 4.76171875 C-8.01627924 3.7919332 -6.84692077 2.85603763 -5.65625 1.94921875 C-5.0890625 1.50964844 -4.521875 1.07007813 -3.9375 0.6171875 C-2.15625 -0.23828125 -2.15625 -0.23828125 0 0 Z " fill="#445135" transform="translate(145.15625,204.23828125)"/>
<path d="M0 0 C0.66 0.33 1.32 0.66 2 1 C1.34 2.32 0.68 3.64 0 5 C-0.66 5 -1.32 5 -2 5 C-2.268125 5.70125 -2.53625 6.4025 -2.8125 7.125 C-4.0681449 10.1649824 -5.50235123 13.0727774 -7 16 C-7.66 16 -8.32 16 -9 16 C-9.09796875 16.54527344 -9.1959375 17.09054688 -9.296875 17.65234375 C-10.11001254 21.75308047 -11.08955574 25.46120292 -12.875 29.25 C-23.08034776 51.29812072 -25.92449107 84.93413902 -17.9296875 108.1015625 C-17 111 -17 111 -17 115 C-17.66 115 -18.32 115 -19 115 C-19.68770577 112.0035677 -20.35045635 109.00476131 -21 106 C-21.17772949 105.23308838 -21.35545898 104.46617676 -21.53857422 103.67602539 C-23.31812085 95.21686546 -23.3093473 86.84600568 -23.25 78.25 C-23.24756287 77.4845285 -23.24512573 76.71905701 -23.24261475 75.9303894 C-23.2060171 66.11518221 -22.95839131 56.34760801 -22.125 46.5625 C-22.04668945 45.6353418 -21.96837891 44.70818359 -21.88769531 43.75292969 C-21.48675565 39.72356284 -21.16190527 36.50861316 -19 33 C-18.01 32.34 -17.02 31.68 -16 31 C-14.7811879 27.44327821 -14.7811879 27.44327821 -14 24 C-13.34 24 -12.68 24 -12 24 C-11.86722656 23.26394531 -11.73445313 22.52789062 -11.59765625 21.76953125 C-11.42105469 20.79371094 -11.24445313 19.81789063 -11.0625 18.8125 C-10.88847656 17.84957031 -10.71445313 16.88664062 -10.53515625 15.89453125 C-10.35855469 14.93933594 -10.18195313 13.98414062 -10 13 C-9.79697266 11.61941406 -9.79697266 11.61941406 -9.58984375 10.2109375 C-9.39519531 9.48132813 -9.20054688 8.75171875 -9 8 C-6.5 6.8125 -6.5 6.8125 -4 6 C-3.67 5.34 -3.34 4.68 -3 4 C-2.34 4 -1.68 4 -1 4 C-0.67 2.68 -0.34 1.36 0 0 Z " fill="#DCC8B4" transform="translate(102,68)"/>
<path d="M0 0 C0.33 0 0.66 0 1 0 C8.60270728 26.92625497 2.977698 54.94261659 -9.984375 79.21435547 C-11.51850475 81.9116211 -13.23388912 84.44938898 -15 87 C-15.66 86.67 -16.32 86.34 -17 86 C-16.66226563 85.52691406 -16.32453125 85.05382812 -15.9765625 84.56640625 C-12.90555438 80.01314854 -11.32108058 76.2340241 -10.5546875 70.78515625 C-10.37164062 70.19605469 -10.18859375 69.60695313 -10 69 C-8.515 68.505 -8.515 68.505 -7 68 C-7 66.68 -7 65.36 -7 64 C-6.01 64 -5.02 64 -4 64 C-3.896875 63.113125 -3.79375 62.22625 -3.6875 61.3125 C-3.37299033 58.97319081 -2.94378333 56.80684138 -2.28320312 54.53710938 C0.82945029 43.52712427 0.33270259 32.53247942 0.1875 21.1875 C0.17242171 19.12696294 0.15873889 17.06641517 0.14648438 15.00585938 C0.11373774 10.00363755 0.06212996 5.00193962 0 0 Z " fill="#B4BCA0" transform="translate(214,103)"/>
<path d="M0 0 C0.8203125 2.16796875 0.8203125 2.16796875 1 4 C-5.3778552 5.17293889 -11.50321562 6.29530838 -18 6 C-18 6.66 -18 7.32 -18 8 C-19.65 8 -21.3 8 -23 8 C-19.67961165 3.2038835 -19.67961165 3.2038835 -16.5 2.25 C-15.2625 2.12625 -15.2625 2.12625 -14 2 C-11.80252869 1.70194993 -11.80252869 1.70194993 -10 1 C-9.67 0.01 -9.34 -0.98 -9 -2 C-9.721875 -1.649375 -10.44375 -1.29875 -11.1875 -0.9375 C-14.33467248 0.11155749 -15.88249382 0.03916873 -19 -1 C-19.33 -1.66 -19.66 -2.32 -20 -3 C-22.39614126 -3.05425226 -24.79103853 -3.09379027 -27.1875 -3.125 C-27.86103516 -3.14175781 -28.53457031 -3.15851562 -29.22851562 -3.17578125 C-33.34434026 -3.21593564 -36.25988751 -2.64074019 -40 -1 C-41.32 -1 -42.64 -1 -44 -1 C-43.67 -1.99 -43.34 -2.98 -43 -4 C-31.27524994 -9.86237503 -10.64450939 -6.8323754 0 0 Z " fill="#9C6F46" transform="translate(150,39)"/>
<path d="M0 0 C3.81401015 1.55385599 6.25500842 4.03485872 9 7 C9.73089844 7.77214844 10.46179688 8.54429688 11.21484375 9.33984375 C12.01019531 10.19707031 12.80554688 11.05429688 13.625 11.9375 C14.38039062 12.75089844 15.13578125 13.56429687 15.9140625 14.40234375 C18.11894673 17.14812655 19.52412935 19.8106185 21 23 C21.63421875 24.23363281 21.63421875 24.23363281 22.28125 25.4921875 C29.58405282 39.77010327 29.58405282 39.77010327 29 46 C24 36.38461538 24 36.38461538 24 31 C21.69 31 19.38 31 17 31 C16.87625 29.14375 16.87625 29.14375 16.75 27.25 C16.36654472 24.15496813 16.08914014 23.11588219 14.125 20.5625 C11.99242873 18.82679752 11.99242873 18.82679752 9 18 C7.80293381 15.0738382 7.05217116 12.3825885 6.625 9.25 C6.41875 8.5075 6.2125 7.765 6 7 C4.67532254 6.3162955 3.34136367 5.65035814 2 5 C0.75 2.375 0.75 2.375 0 0 Z " fill="#859237" transform="translate(185,57)"/>
<path d="M0 0 C1.65 0.33 3.3 0.66 5 1 C4.67 1.78375 4.34 2.5675 4 3.375 C2.88133489 5.84332497 2.88133489 5.84332497 3 8 C3.33 8.5775 3.66 9.155 4 9.75 C5.2640315 12.59407088 5.06845181 14.91966842 5 18 C5.33 18.33 5.66 18.66 6 19 C6.04080783 20.99958364 6.04254356 23.00045254 6 25 C6.66 25 7.32 25 8 25 C8.50512244 26.60256108 9.00391627 28.20711792 9.5 29.8125 C9.7784375 30.70582031 10.056875 31.59914063 10.34375 32.51953125 C11.22462392 35.84902495 10.98479984 39.05330722 10.90820312 42.47143555 C10.88818237 43.37214279 10.86816162 44.27285004 10.84753418 45.20085144 C10.81472351 46.65410576 10.81472351 46.65410576 10.78125 48.13671875 C10.74795593 49.62858452 10.74795593 49.62858452 10.71398926 51.15058899 C10.64297192 54.3295664 10.57149137 57.50853321 10.5 60.6875 C10.45179243 62.84179619 10.40361497 64.99609306 10.35546875 67.15039062 C10.23732871 72.43360162 10.11880828 77.71680399 10 83 C9.34 83 8.68 83 8 83 C8.01571045 81.87207031 8.0314209 80.74414062 8.04760742 79.58203125 C8.10272187 75.31778366 8.13664019 71.05356609 8.16479492 66.7890625 C8.17969888 64.95827914 8.20002914 63.12753027 8.22631836 61.296875 C8.44364285 45.75178183 6.80120548 31.86667685 2 17 C1.37949237 15.02589556 0.7754601 13.04654158 0.1875 11.0625 C-0.08707031 10.16660156 -0.36164063 9.27070312 -0.64453125 8.34765625 C-1 6 -1 6 1 3 C0.34 2.67 -0.32 2.34 -1 2 C-0.67 1.34 -0.34 0.68 0 0 Z " fill="#85904D" transform="translate(171,53)"/>
<path d="M0 0 C-2.381427 3.96904499 -4.63388686 4.7525391 -9 6 C-11.55535302 7.16816138 -13.64327546 8.4288503 -16 10 C-16.33 10.99 -16.66 11.98 -17 13 C-17.66 13 -18.32 13 -19 13 C-19 13.66 -19 14.32 -19 15 C-20.47704212 16.25227484 -21.95827399 17.50166522 -23.4921875 18.68359375 C-25.26762944 20.11764091 -25.26762944 20.11764091 -27 23 C-27.66 22.67 -28.32 22.34 -29 22 C-28.46229776 15.8328845 -24.49746334 13.37498759 -20.0625 9.51171875 C-6.01879838 -2.00626613 -6.01879838 -2.00626613 0 0 Z " fill="#A17C5A" transform="translate(97,41)"/>
<path d="M0 0 C3.465 1.485 3.465 1.485 7 3 C7 3.66 7 4.32 7 5 C8.15757813 4.79503906 9.31515625 4.59007812 10.5078125 4.37890625 C12.04687228 4.10675544 13.58593493 3.83462088 15.125 3.5625 C15.88554688 3.42779297 16.64609375 3.29308594 17.4296875 3.15429688 C21.61637161 2.41440873 25.80477147 1.69026923 30 1 C29 3 29 3 27.25 3.81640625 C21.79570824 5.62503425 16.73046625 6.54520109 11 7 C15.29 8.32 19.58 9.64 24 11 C24 11.33 24 11.66 24 12 C-1.72878536 10.51414309 -1.72878536 10.51414309 -7 7 C-3.04 7 0.92 7 5 7 C4.175 6.21625 3.35 5.4325 2.5 4.625 C0 2 0 2 0 0 Z " fill="#D4CEBE" transform="translate(103,211)"/>
<path d="M0 0 C0.33 0 0.66 0 1 0 C0.67 13.86 0.34 27.72 0 42 C-0.33 41.34 -0.66 40.68 -1 40 C-1.66 40 -2.32 40 -3 40 C-3.07485856 35.74995329 -3.12893167 31.50026866 -3.16479492 27.24975586 C-3.17976508 25.80763045 -3.20014868 24.36554964 -3.22631836 22.92358398 C-3.37063064 14.76003619 -3.25771556 7.65263892 0 0 Z " fill="#BBA177" transform="translate(79,120)"/>
<path d="M0 0 C0.66 0 1.32 0 2 0 C1.7834375 1.46179688 1.7834375 1.46179688 1.5625 2.953125 C-0.99575388 21.82593744 -3.24760701 44.79343079 3.0703125 63.1015625 C4 66 4 66 4 70 C3.34 70 2.68 70 2 70 C1.3122961 67.00357585 0.64999866 64.00465336 0 61 C-0.17772949 60.23888916 -0.35545898 59.47777832 -0.53857422 58.69360352 C-2.2037225 50.82235152 -2.30523907 43.0448311 -2.26074219 35.04052734 C-2.25008267 32.76762816 -2.26066026 30.49553059 -2.2734375 28.22265625 C-2.28121842 18.65056677 -1.52544197 9.45496035 0 0 Z " fill="#F6F0DA" transform="translate(81,113)"/>
<path d="M0 0 C0.66 0 1.32 0 2 0 C3.19685602 3.59056806 2.99186369 6.73808277 2.90820312 10.47143555 C2.88818237 11.37214279 2.86816162 12.27285004 2.84753418 13.20085144 C2.8256604 14.16968765 2.80378662 15.13852386 2.78125 16.13671875 C2.74795593 17.62858452 2.74795593 17.62858452 2.71398926 19.15058899 C2.64297192 22.3295664 2.57149137 25.50853321 2.5 28.6875 C2.45179243 30.84179619 2.40361497 32.99609306 2.35546875 35.15039062 C2.23732871 40.43360162 2.11880828 45.71680399 2 51 C1.34 51 0.68 51 0 51 C0 34.17 0 17.34 0 0 Z " fill="#798450" transform="translate(179,85)"/>
<path d="M0 0 C1.32 0.33 2.64 0.66 4 1 C4.33 2.32 4.66 3.64 5 5 C5.94875 4.938125 6.8975 4.87625 7.875 4.8125 C8.90625 4.874375 9.9375 4.93625 11 5 C11.99 6.485 11.99 6.485 13 8 C12.67 8.99 12.34 9.98 12 11 C12.66 11 13.32 11 14 11 C14.99 13.31 15.98 15.62 17 18 C9.16406497 16.10037939 4.25353287 7.31585184 0 1 C0 0.67 0 0.34 0 0 Z " fill="#C2A883" transform="translate(58,188)"/>
<path d="M0 0 C2.54141489 2.54141489 2.75651667 4.45615838 3.5625 7.9375 C4.28469543 11.01712092 4.9994349 13.9983047 6 17 C6.99 17 7.98 17 9 17 C9.2475 17.94875 9.495 18.8975 9.75 19.875 C10.91197576 24.02249012 12.58223385 27.91589648 14.29296875 31.86328125 C15 34 15 34 14 36 C7.00592463 25.50888695 0 12.90908711 0 0 Z " fill="#E2D3BB" transform="translate(43,152)"/>
<path d="M0 0 C0.33 0 0.66 0 1 0 C1.4815318 7.03571465 0.86640862 12.10146989 -2.0546875 18.515625 C-3.35254978 21.92653578 -3.48752273 25.17891507 -3.7265625 28.79296875 C-4.09348698 31.75457348 -5.09925815 33.71910978 -7 36 C-7.66 36 -8.32 36 -9 36 C-9.33 36.99 -9.66 37.98 -10 39 C-11 37 -11 37 -9.890625 33.47265625 C-9.34979827 32.00036829 -8.80252434 30.53043809 -8.25 29.0625 C-4.76445121 19.508326 -2.11981074 9.94680426 0 0 Z " fill="#C0C8B4" transform="translate(177,136)"/>
<path d="M0 0 C2.55901853 0.9504926 4.87178014 1.91940466 7.1875 3.375 C10.59360134 5.34296966 14.11339739 6.66152316 17.79296875 8.03515625 C20 9 20 9 22 11 C17.15311808 10.21824485 12.6233633 8.60155722 8 7 C8.7734375 8.175625 8.7734375 8.175625 9.5625 9.375 C10.036875 10.24125 10.51125 11.1075 11 12 C10.67 12.66 10.34 13.32 10 14 C9.29875 13.030625 8.5975 12.06125 7.875 11.0625 C3.68745454 6.74282325 -1.44351509 7.184984 -7.1484375 7.0078125 C-8.08945313 7.00523438 -9.03046875 7.00265625 -10 7 C-10 6.67 -10 6.34 -10 6 C-5.05 5.67 -0.1 5.34 5 5 C4.34 4.67 3.68 4.34 3 4 C3 3.34 3 2.68 3 2 C2.01 1.67 1.02 1.34 0 1 C0 0.67 0 0.34 0 0 Z " fill="#DEDDC7" transform="translate(152,39)"/>
<path d="M0 0 C0.66 0 1.32 0 2 0 C7.7024034 14.06223751 8.28181755 27.03235689 8 42 C7.67 42 7.34 42 7 42 C6.95101562 40.78183594 6.90203125 39.56367187 6.8515625 38.30859375 C6.77647727 36.68487563 6.70093198 35.06117874 6.625 33.4375 C6.5940625 32.63763672 6.563125 31.83777344 6.53125 31.01367188 C6.2884499 26.05650314 5.56076345 21.74918022 4 17 C3.47019531 15.32357422 3.47019531 15.32357422 2.9296875 13.61328125 C2.22381452 11.40416026 1.51546123 9.19583033 0.8046875 6.98828125 C0 4 0 4 0 0 Z " fill="#808B4F" transform="translate(207,88)"/>
<path d="M0 0 C13.8630137 3.8630137 13.8630137 3.8630137 18 8 C20.06874034 8.6425235 20.06874034 8.6425235 22 9 C22 9.66 22 10.32 22 11 C22.66 11.33 23.32 11.66 24 12 C15.5392561 11.68072665 7.85447864 8.13264921 1.8125 2.125 C1.214375 1.42375 0.61625 0.7225 0 0 Z " fill="#C9B699" transform="translate(75,206)"/>
<path d="M0 0 C0 0.33 0 0.66 0 1 C-7.06357844 1.7927062 -13.94767542 2.05811808 -21.0546875 1.83984375 C-24.14497278 2.00788313 -26.1728081 2.81034004 -29 4 C-30.32 4 -31.64 4 -33 4 C-32.67 3.01 -32.34 2.02 -32 1 C-23.41154275 -3.29422862 -9.19289428 -1.75102748 0 0 Z " fill="#A17A58" transform="translate(139,34)"/>
<path d="M0 0 C0.33 0 0.66 0 1 0 C1.25082027 7.39919796 1.25082027 7.39919796 -0.0078125 10.4140625 C-1.15162733 13.3951862 -1.13573225 15.51051694 -1 18.6875 C-0.88722366 24.37565672 -1.63511827 29.4917273 -3 35 C-3.33 35 -3.66 35 -4 35 C-4.39724756 23.14878104 -3.26388072 11.42358251 0 0 Z " fill="#B5946C" transform="translate(47,94)"/>
<path d="M0 0 C3.63100736 2.42067158 4.1690407 4.05639536 6 8 C6.83189798 9.62573528 7.66534787 11.25067698 8.5 12.875 C14.55816517 25.04623818 14.55816517 25.04623818 14 31 C9 21.38461538 9 21.38461538 9 16 C8.34 16 7.68 16 7 16 C4.10349105 13.74220841 3.31891923 11.48524025 2.375 8 C2.13523438 7.13375 1.89546875 6.2675 1.6484375 5.375 C1.32746094 4.199375 1.32746094 4.199375 1 3 C0.67 2.01 0.34 1.02 0 0 Z " fill="#D4DABB" transform="translate(200,72)"/>
<path d="M0 0 C0.99 0 1.98 0 3 0 C3 0.99 3 1.98 3 3 C1.68 3 0.36 3 -1 3 C-1.12375 3.763125 -1.2475 4.52625 -1.375 5.3125 C-2 8 -2 8 -4 11 C-4.66 11 -5.32 11 -6 11 C-6.33 12.32 -6.66 13.64 -7 15 C-7.66 15 -8.32 15 -9 15 C-9.33 15.99 -9.66 16.98 -10 18 C-10.99 18 -11.98 18 -13 18 C-11.98379995 14.95139986 -11.22608429 14.13333078 -9 12 C-8.67 11.34 -8.34 10.68 -8 10 C-7.34 10 -6.68 10 -6 10 C-5.7525 9.278125 -5.505 8.55625 -5.25 7.8125 C-3.86858872 4.70432462 -2.33146746 2.47276852 0 0 Z " fill="#A5805A" transform="translate(108,57)"/>
<path d="M0 0 C1.46015291 0.28241641 2.91809793 0.57626614 4.375 0.875 C5.18710938 1.03742187 5.99921875 1.19984375 6.8359375 1.3671875 C9 2 9 2 11 4 C10.01 5.485 10.01 5.485 9 7 C8.34 7 7.68 7 7 7 C7.33 8.32 7.66 9.64 8 11 C4.38061905 8.35883012 2.01293477 6.02586954 0 2 C0 1.34 0 0.68 0 0 Z " fill="#8F9C4D" transform="translate(160,46)"/>
<path d="M0 0 C0.99 0.99 1.98 1.98 3 3 C2.34 3 1.68 3 1 3 C0.89042969 3.56589844 0.78085938 4.13179687 0.66796875 4.71484375 C0.50941406 5.44832031 0.35085937 6.18179688 0.1875 6.9375 C0.03667969 7.66839844 -0.11414063 8.39929688 -0.26953125 9.15234375 C-0.51058594 9.76207031 -0.75164062 10.37179688 -1 11 C-4 12 -4 12 -6.1875 11.0625 C-6.785625 10.711875 -7.38375 10.36125 -8 10 C-7.75 8.125 -7.75 8.125 -7 6 C-5.6846659 5.29848848 -4.34882408 4.63474075 -3 4 C-1.26574227 1.96682993 -1.26574227 1.96682993 0 0 Z " fill="#3C4B2B" transform="translate(145,204)"/>
<path d="M0 0 C-11.22604592 3.38443376 -21.29096066 4.52168987 -33 4 C-33 3.67 -33 3.34 -33 3 C-31.87078125 2.94392578 -31.87078125 2.94392578 -30.71875 2.88671875 C-23.45096033 2.43689196 -16.48676763 1.47232777 -9.3828125 -0.0715332 C-5.963487 -0.78203684 -3.31893612 -1.26676951 0 0 Z " fill="#B6BEB1" transform="translate(160,220)"/>
<path d="M0 0 C1.07310858 3.27185553 0.89263102 5.42947592 0.0625 8.75 C-0.13214844 9.54921875 -0.32679687 10.3484375 -0.52734375 11.171875 C-0.76130859 12.07679687 -0.76130859 12.07679687 -1 13 C-1.99 13 -2.98 13 -4 13 C-4 15.31 -4 17.62 -4 20 C-4.33 20 -4.66 20 -5 20 C-5.24623116 5.96482412 -5.24623116 5.96482412 -2 1 C-1.34 0.67 -0.68 0.34 0 0 Z " fill="#C5AD8D" transform="translate(85,100)"/>
<path d="M0 0 C0.66 0 1.32 0 2 0 C2.12117188 0.94101563 2.24234375 1.88203125 2.3671875 2.8515625 C2.53476563 4.09679687 2.70234375 5.34203125 2.875 6.625 C3.03742188 7.85476562 3.19984375 9.08453125 3.3671875 10.3515625 C3.9012426 13.97032413 3.9012426 13.97032413 5.0703125 17.2109375 C6 20 6 20 6 24 C5.34 24 4.68 24 4 24 C0 6.57142857 0 6.57142857 0 0 Z " fill="#EFE5D0" transform="translate(79,159)"/>
<path d="M0 0 C3.85063416 1.56877688 6.15180131 4.0161728 9 7 C10.10155944 8.10676776 11.20573224 9.21094056 12.3125 10.3125 C13.199375 11.199375 14.08625 12.08625 15 13 C14.67 13.66 14.34 14.32 14 15 C13.46890625 14.52949219 12.9378125 14.05898437 12.390625 13.57421875 C11.68421875 12.95160156 10.9778125 12.32898438 10.25 11.6875 C9.55390625 11.07261719 8.8578125 10.45773438 8.140625 9.82421875 C6.04042616 7.98184932 6.04042616 7.98184932 3.8125 6.4375 C1.49041981 4.59585019 0.90091677 2.7778267 0 0 Z " fill="#D0D8B6" transform="translate(185,57)"/>
<path d="M0 0 C0.66 0 1.32 0 2 0 C1.41675605 3.22540929 0.47785202 4.9757611 -1.8125 7.3125 C-2.31394531 7.84488281 -2.81539062 8.37726563 -3.33203125 8.92578125 C-5 10 -5 10 -7.19921875 9.66796875 C-7.79347656 9.44753906 -8.38773438 9.22710937 -9 9 C-8.21625 8.236875 -7.4325 7.47375 -6.625 6.6875 C-3.92742283 4.09108195 -3.92742283 4.09108195 -2 1 C-1.67 1.33 -1.34 1.66 -1 2 C-0.67 1.34 -0.34 0.68 0 0 Z " fill="#4C5939" transform="translate(191,192)"/>
<path d="M0 0 C0.66 0.99 1.32 1.98 2 3 C0.15794162 5.54379491 -1.72478134 7.83312509 -4 10 C-5.32 9.34 -6.64 8.68 -8 8 C-7.67 7.01 -7.34 6.02 -7 5 C-6.38125 4.855625 -5.7625 4.71125 -5.125 4.5625 C-2.2926285 3.8127546 -1.55012483 2.40269349 0 0 Z " fill="#5D684F" transform="translate(153,196)"/>
<path d="M0 0 C2.954889 3.5458668 5.45934985 7.63781033 7 12 C6.67 12.99 6.34 13.98 6 15 C6 14.34 6 13.68 6 13 C5.01 13 4.02 13 3 13 C2.67 12.01 2.34 11.02 2 10 C1.34 9.67 0.68 9.34 0 9 C0 6.03 0 3.06 0 0 Z " fill="#DACBAE" transform="translate(85,183)"/>
<path d="M0 0 C0.33 0 0.66 0 1 0 C1.99 6.6 2.98 13.2 4 20 C4.66 20 5.32 20 6 20 C5.67 21.32 5.34 22.64 5 24 C2.41062611 21.76396226 1.55973778 20.23915438 1.015625 16.875 C0.88542969 16.08609375 0.75523438 15.2971875 0.62109375 14.484375 C0.49863281 13.66453125 0.37617187 12.8446875 0.25 12 C0.11207031 11.18015625 -0.02585937 10.3603125 -0.16796875 9.515625 C-1.13600498 3.40801495 -1.13600498 3.40801495 0 0 Z " fill="#BFA47E" transform="translate(79,163)"/>
<path d="M0 0 C0.66 0 1.32 0 2 0 C1.34 2.64 0.68 5.28 0 8 C-0.66 8 -1.32 8 -2 8 C-2.103125 9.11375 -2.20625 10.2275 -2.3125 11.375 C-2.6528125 13.169375 -2.6528125 13.169375 -3 15 C-3.99 15.66 -4.98 16.32 -6 17 C-5.00481422 10.49200879 -3.60861828 5.5332147 0 0 Z " fill="#AD906C" transform="translate(90,84)"/>
<path d="M0 0 C1.258125 -0.04125 2.51625 -0.0825 3.8125 -0.125 C4.52019531 -0.14820313 5.22789063 -0.17140625 5.95703125 -0.1953125 C8 0 8 0 11 2 C10.67 2.33 10.34 2.66 10 3 C10.66 3.66 11.32 4.32 12 5 C7.428721 4.45144652 3.32564205 3.58255197 -1 2 C-0.67 1.34 -0.34 0.68 0 0 Z " fill="#5E614D" transform="translate(114,217)"/>
<path d="M0 0 C1.2065625 0.0309375 1.2065625 0.0309375 2.4375 0.0625 C0.60499123 3.2039436 -1.19948023 6.28852027 -3.5625 9.0625 C-4.2225 9.0625 -4.8825 9.0625 -5.5625 9.0625 C-5.25431644 7.74897977 -4.94082335 6.43670428 -4.625 5.125 C-4.45097656 4.39410156 -4.27695313 3.66320312 -4.09765625 2.91015625 C-3.2730264 0.06307655 -3.06023188 0.0746398 0 0 Z " fill="#4B5637" transform="translate(165.5625,181.9375)"/>
<path d="M0 0 C0.99 0.33 1.98 0.66 3 1 C2.01165919 8.97488789 2.01165919 8.97488789 -0.46875 11.48828125 C-2.125 12.5625 -2.125 12.5625 -5 14 C-4.54917531 12.53932801 -4.08906463 11.08151968 -3.625 9.625 C-3.36976563 8.81289062 -3.11453125 8.00078125 -2.8515625 7.1640625 C-2 5 -2 5 0 3 C0 2.01 0 1.02 0 0 Z " fill="#4F5D32" transform="translate(172,164)"/>
<path d="M0 0 C2.45840605 -0.02691685 4.91651882 -0.04679802 7.375 -0.0625 C8.07367188 -0.07087891 8.77234375 -0.07925781 9.4921875 -0.08789062 C14.7734375 -0.11328125 14.7734375 -0.11328125 17 1 C17 1.66 17 2.32 17 3 C17.99 3.33 18.98 3.66 20 4 C20.6875 6.0625 20.6875 6.0625 21 8 C20.13375 7.030625 19.2675 6.06125 18.375 5.0625 C13.14527149 0.46077202 6.64314757 1.01842759 0 1 C0 0.67 0 0.34 0 0 Z " fill="#F2F2E3" transform="translate(142,45)"/>
<path d="M0 0 C2.475 0.99 2.475 0.99 5 2 C5 2.66 5 3.32 5 4 C5.99 4.33 6.98 4.66 8 5 C8 5.33 8 5.66 8 6 C3.38 6 -1.24 6 -6 6 C-6 5.67 -6 5.34 -6 5 C-2.535 4.505 -2.535 4.505 1 4 C0.67 2.68 0.34 1.36 0 0 Z " fill="#AA917D" transform="translate(150,39)"/>
<path d="M0 0 C2.56095968 2.48982191 4.96205687 4.95230006 7.1875 7.75 C8.80309077 10.07487388 8.80309077 10.07487388 11 11 C11 11.66 11 12.32 11 13 C9.68 13 8.36 13 7 13 C6.38125 11.6078125 6.38125 11.6078125 5.75 10.1875 C4.2679285 6.96328492 4.2679285 6.96328492 1.8125 5.375 C1.214375 4.92125 0.61625 4.4675 0 4 C0 2.68 0 1.36 0 0 Z " fill="#E1D5BF" transform="translate(92,198)"/>
<path d="M0 0 C1.65 0.33 3.3 0.66 5 1 C4.67 1.763125 4.34 2.52625 4 3.3125 C2.82563314 5.99069135 2.82563314 5.99069135 3 9 C2.01 9 1.02 9 0 9 C-0.33 8.01 -0.66 7.02 -1 6 C-0.34 5.01 0.32 4.02 1 3 C0.34 2.67 -0.32 2.34 -1 2 C-0.67 1.34 -0.34 0.68 0 0 Z " fill="#89963D" transform="translate(171,53)"/>
<path d="M0 0 C0 0.66 0 1.32 0 2 C-0.66 2 -1.32 2 -2 2 C-2 2.66 -2 3.32 -2 4 C-2.66 4 -3.32 4 -4 4 C-4 3.01 -4 2.02 -4 1 C-2 0 -2 0 0 0 Z M-9 6 C-8.01 6.33 -7.02 6.66 -6 7 C-7.32 8.65 -8.64 10.3 -10 12 C-10.66 11.67 -11.32 11.34 -12 11 C-12 10.01 -12 9.02 -12 8 C-11.01 7.34 -10.02 6.68 -9 6 Z " fill="#A5794D" transform="translate(80,52)"/>
<path d="M0 0 C0.66 0.33 1.32 0.66 2 1 C0.5 3.9375 0.5 3.9375 -2 7 C-4.76486571 7.83895734 -7.07439213 7.90247974 -10 8 C-6.66666667 5.33333333 -3.33333333 2.66666667 0 0 Z " fill="#AFB6A8" transform="translate(143,204)"/>
<path d="M0 0 C1.8125 0.125 1.8125 0.125 4 1 C5.06775224 2.96466413 6.06553465 4.96855359 7 7 C8.56102491 8.81554159 8.56102491 8.81554159 10 10 C9.67 10.66 9.34 11.32 9 12 C7.68181446 10.56771184 6.37063296 9.12897516 5.0625 7.6875 C4.33160156 6.88699219 3.60070313 6.08648437 2.84765625 5.26171875 C1 3 1 3 0 0 Z " fill="#E4D5BE" transform="translate(58,188)"/>
<path d="M0 0 C0.99 0.33 1.98 0.66 3 1 C3.144375 2.0725 3.28875 3.145 3.4375 4.25 C3.83749442 6.91662949 4.27591924 9.41399729 5 12 C4.34 12 3.68 12 3 12 C-0.12940055 8.02806853 -0.29162929 4.95769796 0 0 Z " fill="#BB9766" transform="translate(52,168)"/>
<path d="M0 0 C0 0.66 0 1.32 0 2 C-7.28571429 6.57142857 -7.28571429 6.57142857 -12 6 C-4.8 0 -4.8 0 0 0 Z " fill="#A8805C" transform="translate(126,48)"/>
<path d="M0 0 C0.33 1.65 0.66 3.3 1 5 C-1.97 4.505 -1.97 4.505 -5 4 C-4.67 3.34 -4.34 2.68 -4 2 C-4.66 1.34 -5.32 0.68 -6 0 C-3 -1 -3 -1 0 0 Z " fill="#3E472C" transform="translate(128,217)"/>
<path d="M0 0 C-2.83430453 3.2542015 -4.68607774 4.5206753 -9 5 C-9 4.01 -9 3.02 -9 2 C-8.01 2 -7.02 2 -6 2 C-6 1.34 -6 0.68 -6 0 C-3.50907189 -1.24546405 -2.58919267 -0.7767578 0 0 Z " fill="#B79B82" transform="translate(109,35)"/>
<path d="M0 0 C0.66 0.33 1.32 0.66 2 1 C0.32482761 4.53647504 -0.49280817 5.7911563 -4.1875 7.3125 C-5.5796875 7.6528125 -5.5796875 7.6528125 -7 8 C-6.02133662 6.85373678 -5.04205413 5.70800212 -4.0625 4.5625 C-3.51722656 3.92441406 -2.97195312 3.28632812 -2.41015625 2.62890625 C-1.63204305 1.73008851 -0.84063472 0.84063472 0 0 Z " fill="#A5886A" transform="translate(75,52)"/>
<path d="M0 0 C0.66 0 1.32 0 2 0 C2 1.65 2 3.3 2 5 C2.99 5.33 3.98 5.66 5 6 C2 8 2 8 0 8 C-0.98120464 4.94736336 -0.98120464 3.05263664 0 0 Z " fill="#808F3E" transform="translate(202,80)"/>
<path d="M0 0 C3.2542015 2.83430453 4.5206753 4.68607774 5 9 C2 8 2 8 0 5 C-0.125 2.3125 -0.125 2.3125 0 0 Z " fill="#969F61" transform="translate(198,71)"/>
<path d="M0 0 C1.65 0 3.3 0 5 0 C5 0.66 5 1.32 5 2 C3.25 3.5078125 3.25 3.5078125 1 5.125 C0.2575 5.66382812 -0.485 6.20265625 -1.25 6.7578125 C-1.8275 7.16773437 -2.405 7.57765625 -3 8 C-2.68289062 7.38640625 -2.36578125 6.7728125 -2.0390625 6.140625 C-1.04371515 4.09005979 -0.47588139 2.22077983 0 0 Z " fill="#D6C2AF" transform="translate(107,60)"/>
<path d="M0 0 C0.33 0 0.66 0 1 0 C0.75 3.375 0.75 3.375 0 7 C-2.0625 8.4375 -2.0625 8.4375 -4 9 C-2.94124926 5.59687262 -1.99097846 2.98646769 0 0 Z " fill="#516039" transform="translate(198,182)"/>
<path d="M0 0 C2.375 0.3125 2.375 0.3125 5 1 C5.66 1.99 6.32 2.98 7 4 C6.4225 3.814375 5.845 3.62875 5.25 3.4375 C2.79307475 2.95976454 1.35602466 3.24270636 -1 4 C-1.33 3.34 -1.66 2.68 -2 2 C-1.34 2 -0.68 2 0 2 C0 1.34 0 0.68 0 0 Z " fill="#8D9A4A" transform="translate(180,56)"/>
<path d="M0 0 C3.3 0.99 6.6 1.98 10 3 C9.01 3.495 9.01 3.495 8 4 C8 4.66 8 5.32 8 6 C3.67574907 4.59754024 2.927027 3.90270266 0 0 Z " fill="#D3C5A7" transform="translate(75,206)"/>
<path d="M0 0 C4.455 0.99 4.455 0.99 9 2 C7.68 2.33 6.36 2.66 5 3 C3.71563266 4.9837767 3.71563266 4.9837767 3 7 C0 2.25 0 2.25 0 0 Z " fill="#9BA46E" transform="translate(160,46)"/>
<path d="M0 0 C3.32368224 1.10789408 3.61563093 1.48436217 5.25 4.375 C5.60578125 4.98085938 5.9615625 5.58671875 6.328125 6.2109375 C7 8 7 8 6 11 C5.18357746 9.73168307 4.37200895 8.46024069 3.5625 7.1875 C3.11003906 6.47980469 2.65757812 5.77210937 2.19140625 5.04296875 C1 3 1 3 0 0 Z " fill="#E1E6C9" transform="translate(163,53)"/>
<path d="M0 0 C2 2 2 2 2 6 C2.99 6.33 3.98 6.66 5 7 C4.67 7.66 4.34 8.32 4 9 C3.34 9 2.68 9 2 9 C0.4375 6.1875 0.4375 6.1875 -1 3 C-0.67 2.01 -0.34 1.02 0 0 Z " fill="#B89B6F" transform="translate(90,196)"/>
<path d="M0 0 C0.66 0 1.32 0 2 0 C2.33 2.64 2.66 5.28 3 8 C2.34 8 1.68 8 1 8 C-0.35439668 5.29120665 -0.06501451 2.99066732 0 0 Z " fill="#E0CFBB" transform="translate(82,175)"/>
<path d="M0 0 C0.33 0 0.66 0 1 0 C1 3.96 1 7.92 1 12 C0.01 11.01 -0.98 10.02 -2 9 C-1.85546875 6.73828125 -1.85546875 6.73828125 -1.1875 4.3125 C-0.97480469 3.50425781 -0.76210937 2.69601563 -0.54296875 1.86328125 C-0.36378906 1.24839844 -0.18460938 0.63351563 0 0 Z " fill="#6D7841" transform="translate(214,135)"/>
<path d="M0 0 C0.66 0 1.32 0 2 0 C2.33 1.65 2.66 3.3 3 5 C1.68 5.99 0.36 6.98 -1 8 C-0.67 5.36 -0.34 2.72 0 0 Z " fill="#AB8B67" transform="translate(50,86)"/>
<path d="M0 0 C3.36720387 1.39332574 4.9859524 2.9789286 7 6 C5.02 6 3.04 6 1 6 C0.67 4.02 0.34 2.04 0 0 Z " fill="#8D9852" transform="translate(191,65)"/>
<path d="M0 0 C2.475 0.99 2.475 0.99 5 2 C3.35 3.65 1.7 5.3 0 7 C0 4.69 0 2.38 0 0 Z " fill="#4C5A39" transform="translate(178,201)"/>
<path d="M0 0 C2 3 2 3 2 5 C2.66 5 3.32 5 4 5 C3.67 6.32 3.34 7.64 3 9 C1.5 7.875 1.5 7.875 0 6 C-0.1875 2.8125 -0.1875 2.8125 0 0 Z " fill="#B89B67" transform="translate(81,178)"/>
<path d="M0 0 C0.33 0.99 0.66 1.98 1 3 C-1.31 4.32 -3.62 5.64 -6 7 C-4.60667426 3.63279613 -3.0210714 2.0140476 0 0 Z " fill="#9F7F5F" transform="translate(83,46)"/>
</svg>
